<svg width="145" height="36" fill="none" xmlns="http://www.w3.org/2000/svg"><path d="M20.1 12.5V.5h6.6v34.3h-6.6v-3.2l-.87.97c-1.6 1.78-3.86 2.93-7.13 2.93C5.81 35.5.5 29.96.5 22.7c0-7.26 5.31-12.8 11.6-12.8 3.27 0 5.63 1.15 7.12 2.92l.88 1.05V12.5Zm-6.5 16.9h.01a6.72 6.72 0 0 0 4.66-1.86 6.66 6.66 0 0 0 1.83-4.84c0-2.01-.66-3.7-1.83-4.88A6.43 6.43 0 0 0 13.6 16c-1.87 0-3.5.64-4.67 1.82A6.77 6.77 0 0 0 7.1 22.7c0 2.01.66 3.7 1.83 4.88a6.43 6.43 0 0 0 4.67 1.82ZM43.7 29.7c2.04 0 3.76-.72 4.89-1.77l5.27 3.02c-2.4 2.97-5.82 4.55-10.26 4.55-4.18 0-7.55-1.4-9.87-3.7a12.56 12.56 0 0 1-3.63-9.1c0-7.23 5.18-12.8 12.9-12.8 7.1 0 12.3 5.46 12.3 12.8 0 .91-.07 1.74-.2 2.5H36.86l.26.68a5.46 5.46 0 0 0 2.61 2.99c1.15.6 2.51.83 3.96.83Zm4.6-9.1h.66l-.18-.63a5.73 5.73 0 0 0-2.34-3.37c-1.06-.7-2.31-1-3.54-1-1.53 0-2.84.37-3.87 1.12a5.73 5.73 0 0 0-2.11 3.25l-.17.63H48.3ZM69.07 26.26l5.2-15.66H81.37l-8.93 24.2h-7.9l-8.93-24.2h7.32l5.19 15.66.47 1.43.47-1.43ZM83.9 10.6h6.6v24.2h-6.6V10.6ZM94.1 22.7c0-7.22 5.48-12.8 12.9-12.8 4.54 0 8.53 2.32 10.71 5.82l-5.72 3.3a5.78 5.78 0 0 0-5.09-2.62c-3.58 0-6.2 2.63-6.2 6.3 0 1.87.64 3.45 1.76 4.57A6.17 6.17 0 0 0 106.9 29a5.9 5.9 0 0 0 5.1-2.61l5.72 3.3A12.34 12.34 0 0 1 107 35.5c-7.42 0-12.9-5.58-12.9-12.8ZM132.8 29.7a7.1 7.1 0 0 0 4.89-1.77l5.27 3.02c-2.4 2.97-5.82 4.55-10.26 4.55-4.18 0-7.55-1.4-9.87-3.7a12.56 12.56 0 0 1-3.63-9.1c0-7.23 5.28-12.8 12.9-12.8 7.1 0 12.3 5.46 12.3 12.8 0 .91-.07 1.74-.2 2.5h-18.23l.26.68a5.47 5.47 0 0 0 2.61 2.99c1.15.6 2.51.83 3.96.83Zm4.7-9.1h.66l-.18-.63a5.73 5.73 0 0 0-2.34-3.37c-1.06-.7-2.31-1-3.54-1-1.53 0-2.84.37-3.87 1.12a5.73 5.73 0 0 0-2.11 3.25l-.17.63h11.55Z" fill="#000" stroke="#000"/></svg>